<?xml version="1.0" encoding="UTF-8" standalone="no"?>
<!--
  - The MIT License (MIT)
  -
  - Copyright (c) 2015-2022 Elior "Mallowigi" Boukhobza
  -
  - Permission is hereby granted, free of charge, to any person obtaining a copy
  - of this software and associated documentation files (the "Software"), to deal
  - in the Software without restriction, including without limitation the rights
  - to use, copy, modify, merge, publish, distribute, sublicense, and/or sell
  - copies of the Software, and to permit persons to whom the Software is
  - furnished to do so, subject to the following conditions:
  -
  - The above copyright notice and this permission notice shall be included in all
  - copies or substantial portions of the Software.
  -
  - THE SOFTWARE IS PROVIDED "AS IS", WITHOUT WARRANTY OF ANY KIND, EXPRESS OR
  - IMPLIED, INCLUDING BUT NOT LIMITED TO THE WARRANTIES OF MERCHANTABILITY,
  - FITNESS FOR A PARTICULAR PURPOSE AND NONINFRINGEMENT. IN NO EVENT SHALL THE
  - AUTHORS OR COPYRIGHT HOLDERS BE LIABLE FOR ANY CLAIM, DAMAGES OR OTHER
  - LIABILITY, WHETHER IN AN ACTION OF CONTRACT, TORT OR OTHERWISE, ARISING FROM,
  - OUT OF OR IN CONNECTION WITH THE SOFTWARE OR THE USE OR OTHER DEALINGS IN THE
  - SOFTWARE.
  -
  -
  -->

<svg
   version="1.1"
   id="Layer_1"
   x="0px"
   y="0px"
   viewBox="0 0 473.931 473.931"
   xml:space="preserve"
   sodipodi:docname="logo.svg"
   inkscape:version="1.2.2 (b0a8486541, 2022-12-01)"
   xmlns:inkscape="http://www.inkscape.org/namespaces/inkscape"
   xmlns:sodipodi="http://sodipodi.sourceforge.net/DTD/sodipodi-0.dtd"
   xmlns="http://www.w3.org/2000/svg"
   xmlns:svg="http://www.w3.org/2000/svg"><defs
   id="defs188" /><sodipodi:namedview
   id="namedview186"
   pagecolor="#505050"
   bordercolor="#eeeeee"
   borderopacity="1"
   inkscape:showpageshadow="0"
   inkscape:pageopacity="0"
   inkscape:pagecheckerboard="0"
   inkscape:deskcolor="#505050"
   showgrid="false"
   showguides="true"
   inkscape:zoom="0.49796278"
   inkscape:cx="89.364108"
   inkscape:cy="206.84277"
   inkscape:window-width="1227"
   inkscape:window-height="456"
   inkscape:window-x="0"
   inkscape:window-y="0"
   inkscape:window-maximized="0"
   inkscape:current-layer="Layer_1" />
<circle
   style="fill:#344E5D;"
   cx="236.966"
   cy="236.966"
   r="236.966"
   id="circle123" />
  
  
  
  
  
  
  
  
  
  
  
  
  
  
  
  
  
  
  
  
  
  
  
  
  
  
<g
   id="g4388"
   transform="matrix(1.5012237,0,0,1.5012237,0.88697629,-111.42081)"
   style="stroke:none;stroke-opacity:1"><path
     style="fill:#83ceca;stroke:none;stroke-opacity:1"
     d="m 203.15632,149.44545 c -10.151,-35.251 -26.529,-58.153997 -45.025,-58.153997 -19.584,0 -36.804,25.686997 -46.757,64.518997 13.702,3.244 28.422,8.041 43.584,14.327 16.753,-8.995 33.108,-15.97 48.198,-20.692 z"
     id="path125" /><path
     style="fill:#039a88;stroke:none;stroke-opacity:1"
     d="m 155.16832,174.27245 -1.639,-0.681 c -14.78,-6.125 -29.253,-10.885 -43.015,-14.144 l -3.708,-0.879 0.947,-3.693 c 10.81,-42.162 29.642,-67.332997 50.383,-67.332997 19.76,0 37.485,22.180997 48.62,60.859997 l 1.014,3.514 -3.491,1.093 c -15.158,4.748 -31.154,11.614 -47.543,20.419 z m -39.202,-21.19 c 12.509,3.173 25.526,7.51 38.783,12.924 15.012,-7.962 29.71,-14.342 43.775,-19.001 -10.013,-32.624 -24.991,-51.972997 -40.396,-51.972997 -16.303,0 -32.303,22.136997 -42.162,58.049997 z"
     id="path127" /><path
     style="fill:#83ceca;stroke:none;stroke-opacity:1"
     d="m 113.10032,316.91145 c 10.151,35.244 26.537,58.147 45.032,58.147 19.577,0 36.796,-25.683 46.742,-64.512 -13.695,-3.248 -28.415,-8.049 -43.584,-14.335 -16.745,9.007 -33.1,15.971 -48.19,20.7 z"
     id="path129" /><path
     style="fill:#039a88;stroke:none;stroke-opacity:1"
     d="m 158.13232,378.80445 c -19.764,0 -37.492,-22.181 -48.628,-60.852 l -1.014,-3.514 3.491,-1.093 c 15.221,-4.774 31.217,-11.644 47.535,-20.426 l 1.564,-0.842 1.639,0.681 c 14.795,6.129 29.264,10.889 43.015,14.151 l 3.708,0.879 -0.947,3.689 c -10.794,42.156 -29.623,67.327 -50.363,67.327 z m -40.404,-59.453 c 10.013,32.621 24.995,51.966 40.404,51.966 16.299,0 32.299,-22.136 42.151,-58.046 -12.497,-3.173 -25.515,-7.51 -38.783,-12.928 -14.957,7.947 -29.658,14.327 -43.772,19.008 z"
     id="path131" /><path
     style="fill:#83ceca;stroke:none;stroke-opacity:1"
     d="m 66.967324,237.75845 c -26.323,29.384 -37.893,57.488 -27.206,73.66 10.196,15.424 38.338,16.464 73.337996,5.497 -4.318,-15.008 -7.498,-32.261 -9.246,-50.944 -13.951996,-9.077 -26.389996,-18.626 -36.885996,-28.213 z"
     id="path133" /><path
     style="fill:#039a88;stroke:none;stroke-opacity:1"
     d="m 72.011324,327.95745 c -0.003,0 -0.003,0 0,0 -16.883,0 -29.111,-5.006 -35.371,-14.477 -11.472,-17.366 -1.437,-45.874 27.539,-78.218 l 2.522,-2.814 2.791,2.548 c 10.503,9.594 22.75,18.956 36.399996,27.835 l 1.515,0.988 0.172,1.8 c 1.706,18.267 4.771,35.176 9.111,50.259 l 1.014,3.51 -3.491,1.093 c -15.814996,4.962 -30.017996,7.476 -42.201996,7.476 z m -4.733,-84.889 c -23.925,27.648 -33.272,52.86 -24.4,66.285 6.077,9.19 19.191,11.121 29.126,11.121 10.383,0 22.944,-2.095 36.504996,-6.08 -3.813,-14.103 -6.571,-29.642 -8.209,-46.282 -12.187996,-8.016 -23.274996,-16.423 -33.021996,-25.044 z"
     id="path135" /><path
     style="fill:#83ceca;stroke:none;stroke-opacity:1"
     d="m 249.29232,228.59845 c 26.316,-29.384 37.885,-57.488 27.203,-73.66 -10.196,-15.424 -38.338,-16.464 -73.338,-5.497 4.325,15.012 7.506,32.261 9.246,50.944 13.948,9.07 26.386,18.627 36.889,28.213 z"
     id="path137" /><path
     style="fill:#039a88;stroke:none;stroke-opacity:1"
     d="m 249.55832,233.90845 -2.788,-2.544 c -10.544,-9.624 -22.795,-18.989 -36.407,-27.835 l -1.519,-0.988 -0.168,-1.804 c -1.699,-18.26 -4.763,-35.169 -9.115,-50.256 l -1.014,-3.514 3.491,-1.093 c 15.824,-4.958 30.02,-7.476 42.207,-7.476 16.879,0 29.107,5.006 35.367,14.477 11.472,17.362 1.437,45.87 -27.532,78.218 z m -33.605,-35.667 c 12.161,7.996 23.251,16.404 33.029,25.047 23.921,-27.648 33.264,-52.86 24.393,-66.285 -6.077,-9.19 -19.191,-11.121 -29.126,-11.121 -10.383,0 -22.944,2.095 -36.501,6.08 3.812,14.108 6.57,29.647 8.205,46.279 z"
     id="path139" /><path
     style="fill:#83ceca;stroke:none;stroke-opacity:1"
     d="m 184.07332,183.79145 c 9.998,5.253 19.461,10.829 28.325,16.598 -1.74,-18.683 -4.917,-35.936 -9.246,-50.944 -15.091,4.726 -31.446,11.697 -48.198,20.692 9.587,3.974 19.335,8.516 29.119,13.654 z"
     id="path141" /><path
     style="fill:#039a88;stroke:none;stroke-opacity:1"
     d="m 216.84432,207.74645 -6.484,-4.221 c -8.954,-5.826 -18.383,-11.352 -28.022,-16.419 -9.388,-4.928 -19.083,-9.474 -28.808,-13.512 l -7.281,-3.023 6.941,-3.731 c 16.808,-9.029 33.246,-16.082 48.852,-20.969 l 3.656,-1.145 1.059,3.678 c 4.475,15.536 7.629,32.905 9.377,51.633 z m -53.16,-37.942 c 7.476,3.3 14.888,6.877 22.129,10.679 7.521,3.951 14.911,8.176 22.061,12.602 -1.62,-13.893 -4.06,-26.926 -7.274,-38.881 -11.891,3.952 -24.265,9.183 -36.916,15.6 z"
     id="path143" /><path
     style="fill:#83ceca;stroke:none;stroke-opacity:1"
     d="m 132.17932,282.56245 c -9.998,-5.25 -19.453,-10.829 -28.325,-16.595 1.747,18.683 4.924,35.936 9.246,50.944 15.091,-4.733 31.446,-11.693 48.19,-20.699 -9.575,-3.966 -19.326,-8.509 -29.111,-13.65 z"
     id="path145" /><path
     style="fill:#039a88;stroke:none;stroke-opacity:1"
     d="m 110.56332,321.63045 -1.059,-3.682 c -4.468,-15.528 -7.622,-32.898 -9.377,-51.629 l -0.717996,-7.701 6.483996,4.213 c 9.033,5.871 18.466,11.394 28.026,16.419 9.392,4.935 19.083,9.478 28.8,13.508 l 7.281,3.02 -6.941,3.734 c -16.737,9.003 -33.167,16.06 -48.845,20.973 z m -2.178,-48.359 c 1.624,13.893 4.06,26.929 7.27,38.881 11.929,-3.974 24.303,-9.201 36.909,-15.603 -7.472,-3.296 -14.888,-6.874 -22.125,-10.679 -7.472,-3.922 -14.862,-8.146 -22.054,-12.599 z"
     id="path147" /><path
     style="fill:#83ceca;stroke:none;stroke-opacity:1"
     d="m 103.53932,203.82845 c 1.441,-17.399 4.142,-33.608 7.835,-48.018 -39.003996,-9.257 -69.742996,-5.961 -78.853996,11.379 -9.01,17.16 5.313,43.969 34.45,70.57 10.141,-11.323 22.478,-22.837 36.568996,-33.931 z"
     id="path149" /><path
     style="fill:#039a88;stroke:none;stroke-opacity:1"
     d="m 67.237324,243.06845 -2.788,-2.548 c -32.074,-29.279 -44.92,-56.643 -35.244,-75.071 6.339,-12.056 21.478,-18.428 43.79,-18.428 11.644,0 24.849,1.732 39.239996,5.145 l 3.708,0.879 -0.947,3.689 c -3.734,14.574 -6.331,30.522 -7.727,47.397 l -0.135,1.624 -1.283,1.007 c -13.731996,10.814 -25.877996,22.08 -36.092996,33.489 z m 5.758,-88.564 c -19.079,0 -32.276,5.122 -37.167,14.424 -7.48,14.249 4.34,38.402 30.918,63.516 9.624,-10.41 20.771,-20.666 33.201,-30.548 1.335996,-15.278 3.647996,-29.814 6.876996,-43.288 -12.391996,-2.723 -23.755996,-4.104 -33.828996,-4.104 z"
     id="path151" /><path
     style="fill:#83ceca;stroke:none;stroke-opacity:1"
     d="m 249.29232,228.59845 c -10.151,11.33 -22.488,22.84 -36.576,33.93 -1.441,17.395 -4.142,33.605 -7.843,48.018 39.004,9.246 69.75,5.961 78.861,-11.379 9.011,-17.163 -5.312,-43.968 -34.442,-70.569 z"
     id="path153" /><path
     style="fill:#039a88;stroke:none;stroke-opacity:1"
     d="m 243.26032,319.33245 c -0.003,0 -0.003,0 0,0 -11.648,0 -24.857,-1.732 -39.247,-5.145 l -3.708,-0.879 0.947,-3.693 c 3.738,-14.563 6.339,-30.507 7.734,-47.397 l 0.135,-1.624 1.283,-1.007 c 13.747,-10.825 25.893,-22.091 36.1,-33.489 l 2.522,-2.814 2.791,2.548 c 32.063,29.283 44.905,56.646 35.232,75.071 -6.337,12.057 -21.476,18.429 -43.789,18.429 z m -33.836,-11.584 c 12.396,2.72 23.76,4.097 33.833,4.101 19.083,0 32.28,-5.122 37.171,-14.421 7.48,-14.249 -4.34,-38.402 -30.911,-63.516 -9.616,10.402 -20.771,20.658 -33.208,30.548 -1.344,15.288 -3.652,29.821 -6.885,43.288 z"
     id="path155" /><path
     style="fill:#83ceca;stroke:none;stroke-opacity:1"
     d="m 188.88932,279.71545 c -9.223,6.092 -18.469,11.592 -27.603,16.497 15.173,6.286 29.889,11.087 43.584,14.335 3.697,-14.413 6.402,-30.623 7.843,-48.018 -7.473,5.874 -15.431,11.633 -23.824,17.186 z"
     id="path157" /><path
     style="fill:#039a88;stroke:none;stroke-opacity:1"
     d="m 207.58732,315.03745 -3.573,-0.849 c -14.136,-3.353 -28.995,-8.239 -44.157,-14.518 l -7.289,-3.02 6.948,-3.734 c 9.231,-4.958 18.417,-10.447 27.315,-16.325 8.123,-5.381 16.056,-11.102 23.573,-17.006 l 6.75,-5.298 -0.703,8.55 c -1.433,17.306 -4.108,33.672 -7.948,48.639 z m -37.579,-19.364 c 10.986,4.247 21.751,7.716 32.134,10.35 2.66,-11.072 4.681,-22.903 6.032,-35.303 -5.586,4.172 -11.352,8.232 -17.22,12.112 -6.851,4.527 -13.87,8.83 -20.946,12.841 z"
     id="path159" /><path
     style="fill:#83ceca;stroke:none;stroke-opacity:1"
     d="m 127.36332,186.63845 c 9.223,-6.092 18.469,-11.588 27.595,-16.501 -15.165,-6.286 -29.882,-11.083 -43.584,-14.327 -3.689,14.41 -6.395,30.619 -7.835,48.018 7.476,-5.875 15.428,-11.641 23.824,-17.19 z"
     id="path161" /><path
     style="fill:#039a88;stroke:none;stroke-opacity:1"
     d="m 99.102324,212.06745 0.703,-8.55 c 1.432996,-17.294 4.104996,-33.661 7.939996,-48.639 l 0.913,-3.558 3.573,0.846 c 14.151,3.353 29.006,8.236 44.157,14.511 l 7.278,3.016 -6.933,3.738 c -9.276,4.995 -18.462,10.488 -27.307,16.329 -8.037,5.313 -15.974,11.038 -23.573,17.01 z m 15.003996,-51.737 c -2.657,11.079 -4.673,22.907 -6.024,35.304 5.631,-4.209 11.397,-8.266 17.22,-12.116 6.821,-4.505 13.841,-8.808 20.95,-12.842 -10.986,-4.243 -21.755,-7.712 -32.146,-10.346 z"
     id="path163" /><path
     style="fill:#83ceca;stroke:none;stroke-opacity:1"
     d="m 213.91432,233.17845 c 0,10.065 -0.423,19.88 -1.197,29.354 14.091,-11.094 26.428,-22.6 36.576,-33.93 -10.503,-9.586 -22.941,-19.143 -36.89,-28.209 0.976,10.522 1.511,21.493 1.511,32.785 z"
     id="path165" /><path
     style="fill:#039a88;stroke:none;stroke-opacity:1"
     d="m 208.28632,270.77945 0.7,-8.554 c 0.79,-9.624 1.186,-19.397 1.186,-29.047 0,-10.851 -0.505,-21.766 -1.497,-32.441 l -0.715,-7.697 6.481,4.209 c 13.953,9.066 26.529,18.683 37.373,28.583 l 2.739,2.499 -2.473,2.761 c -10.499,11.719 -22.967,23.285 -37.051,34.376 z m 8.475,-62.989 c 0.595,8.411 0.894,16.916 0.894,25.388 0,6.986 -0.206,14.032 -0.61,21.044 9.972,-8.273 19.001,-16.771 26.944,-25.354 -8.175,-7.226 -17.297,-14.286 -27.228,-21.078 z"
     id="path167" /><path
     style="fill:#83ceca;stroke:none;stroke-opacity:1"
     d="m 102.34232,233.17845 c 0,-10.058 0.415,-19.88 1.197,-29.35 -14.090996,11.094 -26.427996,22.608 -36.567996,33.93 10.496,9.586 22.933,19.135 36.882996,28.209 -0.981,-10.525 -1.512,-21.504 -1.512,-32.789 z"
     id="path169" /><path
     style="fill:#039a88;stroke:none;stroke-opacity:1"
     d="m 108.29532,273.32045 -6.481,-4.213 c -13.989996,-9.1 -26.565996,-18.716 -37.368996,-28.583 l -2.731,-2.499 2.47,-2.758 c 10.511,-11.73 22.974,-23.296 37.042996,-34.376 l 6.75,-5.313 -0.703,8.565 c -0.79,9.527 -1.186,19.296 -1.186,29.04 0,10.851 0.505,21.77 1.497,32.445 z m -36.024996,-35.828 c 8.15,7.203 17.272,14.267 27.221,21.07 -0.595,-8.408 -0.894,-16.917 -0.894,-25.388 0,-7.031 0.206,-14.073 0.606,-21.036 -9.957,8.266 -18.99,16.763 -26.933,25.354 z"
     id="path171" /><path
     style="fill:#83ceca;stroke:none;stroke-opacity:1"
     d="m 212.40232,200.38945 c -8.864,-5.77 -18.327,-11.341 -28.325,-16.598 -9.785,-5.137 -19.536,-9.68 -29.115,-13.654 -9.126,4.913 -18.372,10.41 -27.595,16.501 -8.396,5.549 -16.348,11.315 -23.824,17.19 -0.782,9.467 -1.197,19.289 -1.197,29.35 0,11.289 0.535,22.263 1.512,32.793 8.872,5.766 18.327,11.341 28.325,16.595 9.785,5.141 19.536,9.684 29.107,13.65 9.134,-4.909 18.38,-10.406 27.603,-16.497 8.389,-5.553 16.348,-11.311 23.824,-17.186 0.775,-9.47 1.197,-19.285 1.197,-29.354 0,-11.293 -0.535,-22.264 -1.512,-32.79 z"
     id="path173" /><g
     id="g183"
     transform="translate(-84.947676,-6.0245466)"
     style="stroke:none;stroke-opacity:1">
	<path
   style="fill:#039a88;stroke:none;stroke-opacity:1"
   d="m 246.444,306.375 -1.639,-0.681 c -9.927,-4.116 -19.828,-8.756 -29.414,-13.796 -9.77,-5.13 -19.401,-10.773 -28.624,-16.767 l -1.519,-0.988 -0.168,-1.804 c -1.014,-10.907 -1.527,-22.058 -1.527,-33.137 0,-9.949 0.408,-19.925 1.209,-29.657 l 0.135,-1.628 1.283,-1.01 c 7.764,-6.095 15.861,-11.94 24.074,-17.366 9.033,-5.964 18.413,-11.577 27.887,-16.677 l 1.564,-0.846 1.639,0.681 c 9.938,4.123 19.839,8.767 29.421,13.8 9.848,5.175 19.48,10.821 28.628,16.774 l 1.515,0.988 0.168,1.8 c 1.014,10.907 1.527,22.054 1.527,33.133 0,9.856 -0.408,19.835 -1.209,29.657 l -0.135,1.628 -1.283,1.01 c -7.678,6.028 -15.775,11.869 -24.074,17.362 -9.085,6.002 -18.473,11.611 -27.895,16.673 z m -54.08,-36.534 c 8.565,5.504 17.474,10.69 26.503,15.435 8.864,4.659 17.994,8.965 27.161,12.823 8.7,-4.733 17.358,-9.934 25.751,-15.48 7.663,-5.074 15.154,-10.451 22.286,-15.996 0.703,-9.096 1.055,-18.312 1.055,-27.42 0,-10.241 -0.449,-20.535 -1.332,-30.638 -8.498,-5.467 -17.407,-10.657 -26.503,-15.435 -8.86,-4.651 -17.994,-8.962 -27.169,-12.827 -8.744,4.767 -17.395,9.972 -25.743,15.483 -7.585,5.014 -15.079,10.395 -22.286,16.004 -0.703,9.01 -1.055,18.222 -1.055,27.412 0,10.239 0.449,20.54 1.332,30.639 z"
   id="path175" />
    <circle
   style="fill:#039a88;stroke:none;stroke-opacity:1"
   cx="270.79099"
   cy="118.629"
   r="16.976"
   id="circle177" />
    <circle
   style="fill:#039a88;stroke:none;stroke-opacity:1"
   cx="152.312"
   cy="327.77802"
   r="16.976"
   id="circle179" />
    <path
   style="fill:#039a88;stroke:none;stroke-opacity:1"
   d="m 300.022,250.833 c -9.369,0 -16.969,7.599 -16.969,16.98 0,9.369 7.6,16.973 16.969,16.973 9.384,0 16.984,-7.603 16.984,-16.973 0.003,-9.381 -7.6,-16.98 -16.984,-16.98 z"
   id="path181" />
</g></g><path
   fill="#ff4081"
   iconColor="Mathematica"
   d="m 289.95564,232.25374 c 21.16105,-24.65057 22.5712,-23.41598 -8.29028,-30.64926 3.86189,-32.83061 2.60909,-29.619 -26.44489,-19.06939 -15.5473,-29.14874 -14.41983,-26.92546 -31.29509,-0.62145 -32.2255,-15.21156 -29.21481,-12.83882 -26.38339,20.31996 -33.45175,4.54157 -29.40814,4.87035 -7.60644,27.39298 -26.55039,25.5935 -27.59426,24.03199 7.90581,30.36371 -5.41014,36.59799 -6.16972,34.90441 25.27111,18.15923 17.68262,27.23253 12.64147,33.26162 31.15587,0.59445 30.21112,18.0811 27.4649,15.55787 27.11521,-17.34175 34.5212,-2.79764 28.19099,-4.83923 8.57209,-29.14848 z m -24.70666,19.62611 12.84931,-4.26092 11.56087,4.75203 -14.10227,1.9973 z m -15.608,0.46812 -10.92198,14.9676 -11.31954,-15.99074 11.73356,-13.45064 z m 11.0465,-51.12572 v 20.11869 l -19.26843,7.02973 v -19.55648 z m -25.49218,6.94666 v 18.89243 l -16.44093,-6.49304 -1.2229,-19.51089 z m -18.49392,18.28023 17.95338,7.09095 -12.21186,13.99764 -18.61408,-5.93925 z m 27.3355,7.59197 18.65725,-6.80691 10.60652,15.41722 -18.21829,6.04372 z m 47.27428,12.27997 -11.05867,-4.5457 -7.86581,-11.43346 9.13224,3.84458 z m 4.25286,-33.46797 -12.30483,15.31229 -14.30869,-6.02325 9.51303,-13.29694 z m -21.9066,-7.98739 -6.74619,9.42978 v -17.44332 l 7.84676,-8.98828 z m -5.69753,-18.67948 -7.29428,8.3555 -14.58638,5.74669 7.04657,-8.71676 z m -28.22588,-14.50631 9.08676,15.31686 -10.05243,12.4363 -8.79328,-12.54113 z m -14.6034,19.14396 6.43147,9.17302 -14.91817,-6.00635 -7.73202,-9.84686 z m -14.09349,6.10547 1.02136,16.29198 -6.44809,-7.94515 -1.46241,-17.12031 z m -26.7616,15.66465 16.74952,-3.09192 9.51154,11.72085 -13.48925,4.56412 z m 14.41967,19.20609 7.42919,-2.51373 -9.51339,11.19685 -9.73364,3.38616 z m -11.19667,18.44207 10.97597,-3.81831 13.66893,4.36127 -8.90672,2.26389 z m 18.30388,8.57687 15.75789,-4.00471 v 15.34753 l -18.12652,9.65289 z m 21.98165,11.67929 v -7.85769 l 7.73948,10.93307 v 11.00728 z m 13.96325,3.12922 7.89368,-10.43443 v 7.93402 l -7.89368,13.93571 z m 14.11742,-2.85012 v -14.75944 l 17.7254,4.27886 0.21399,20.05573 z"
   id="path3884"
   style="fill:#f40803;stroke:none;stroke-width:1.88219;stroke-dasharray:none;stroke-opacity:1;opacity:1"
   sodipodi:nodetypes="ccccccccccccccccccccccccccccccccccccccccccccccccccccccccccccccccccccccccccccccccccccccccccccccccccccccccccccccc"
   inkscape:label="path3884" /></svg>
